<svg xmlns="http://www.w3.org/2000/svg" version="1.1" xmlns:xlink="http://www.w3.org/1999/xlink" xmlns:svgjs="http://svgjs.com/svgjs" width="89" height="60"><svg width="89" height="60" viewBox="0 0 89 60" fill="none" xmlns="http://www.w3.org/2000/svg">
<g filter="url(#filter0_d_249_673)">
<mask id="SvgjsMask1001" maskUnits="userSpaceOnUse" x="3" y="-1" width="83" height="54" fill="black">
<rect fill="white" x="3" y="-1" width="83" height="54"></rect>
<path d="M63.288 0.239997V51H49.176V22.992L39.6 51H27.792L18.144 22.776V51H4.032V0.239997H21.096L33.84 33.216L46.296 0.239997H63.288ZM76.0011 51.576C73.5051 51.576 71.4891 50.904 69.9531 49.56C68.4651 48.168 67.7211 46.416 67.7211 44.304C67.7211 42.192 68.4651 40.44 69.9531 39.048C71.4891 37.656 73.5051 36.96 76.0011 36.96C78.4491 36.96 80.4171 37.656 81.9051 39.048C83.4411 40.44 84.2091 42.192 84.2091 44.304C84.2091 46.368 83.4411 48.096 81.9051 49.488C80.4171 50.88 78.4491 51.576 76.0011 51.576Z"></path>
</mask>
<path d="M63.288 0.239997V51H49.176V22.992L39.6 51H27.792L18.144 22.776V51H4.032V0.239997H21.096L33.84 33.216L46.296 0.239997H63.288ZM76.0011 51.576C73.5051 51.576 71.4891 50.904 69.9531 49.56C68.4651 48.168 67.7211 46.416 67.7211 44.304C67.7211 42.192 68.4651 40.44 69.9531 39.048C71.4891 37.656 73.5051 36.96 76.0011 36.96C78.4491 36.96 80.4171 37.656 81.9051 39.048C83.4411 40.44 84.2091 42.192 84.2091 44.304C84.2091 46.368 83.4411 48.096 81.9051 49.488C80.4171 50.88 78.4491 51.576 76.0011 51.576Z" fill="white"></path>
<path d="M63.288 0.239997H64.288V-0.760003H63.288V0.239997ZM63.288 51V52H64.288V51H63.288ZM49.176 51H48.176V52H49.176V51ZM49.176 22.992H50.176L48.2298 22.6685L49.176 22.992ZM39.6 51V52H40.3149L40.5462 51.3235L39.6 51ZM27.792 51L26.8458 51.3235L27.077 52H27.792V51ZM18.144 22.776L19.0902 22.4525L17.144 22.776H18.144ZM18.144 51V52H19.144V51H18.144ZM4.032 51H3.032V52H4.032V51ZM4.032 0.239997V-0.760003H3.032V0.239997H4.032ZM21.096 0.239997L22.0288 -0.120483L21.7816 -0.760003H21.096V0.239997ZM33.84 33.216L32.9072 33.5765L33.8507 36.0177L34.7755 33.5694L33.84 33.216ZM46.296 0.239997V-0.760003H45.6048L45.3605 -0.113364L46.296 0.239997ZM62.288 0.239997V51H64.288V0.239997H62.288ZM63.288 50H49.176V52H63.288V50ZM50.176 51V22.992H48.176V51H50.176ZM48.2298 22.6685L38.6538 50.6765L40.5462 51.3235L50.1222 23.3155L48.2298 22.6685ZM39.6 50H27.792V52H39.6V50ZM28.7382 50.6765L19.0902 22.4525L17.1978 23.0995L26.8458 51.3235L28.7382 50.6765ZM17.144 22.776V51H19.144V22.776H17.144ZM18.144 50H4.032V52H18.144V50ZM5.032 51V0.239997H3.032V51H5.032ZM4.032 1.24H21.096V-0.760003H4.032V1.24ZM20.1632 0.600477L32.9072 33.5765L34.7728 32.8555L22.0288 -0.120483L20.1632 0.600477ZM34.7755 33.5694L47.2315 0.593358L45.3605 -0.113364L32.9045 32.8626L34.7755 33.5694ZM46.296 1.24H63.288V-0.760003H46.296V1.24ZM69.9531 49.56L69.2699 50.2903L69.282 50.3016L69.2946 50.3126L69.9531 49.56ZM69.9531 39.048L69.2815 38.307L69.2757 38.3123L69.2699 38.3177L69.9531 39.048ZM81.9051 39.048L81.2219 39.7783L81.2277 39.7837L81.2335 39.789L81.9051 39.048ZM81.9051 49.488L81.2335 48.747L81.2277 48.7523L81.2219 48.7577L81.9051 49.488ZM76.0011 50.576C73.691 50.576 71.9269 49.9584 70.6116 48.8074L69.2946 50.3126C71.0512 51.8496 73.3192 52.576 76.0011 52.576V50.576ZM70.6362 48.8297C69.3585 47.6345 68.7211 46.1506 68.7211 44.304H66.7211C66.7211 46.6814 67.5716 48.7015 69.2699 50.2903L70.6362 48.8297ZM68.7211 44.304C68.7211 42.4574 69.3585 40.9735 70.6362 39.7783L69.2699 38.3177C67.5716 39.9065 66.7211 41.9266 66.7211 44.304H68.7211ZM70.6246 39.789C71.9406 38.5963 73.6999 37.96 76.0011 37.96V35.96C73.3102 35.96 71.0375 36.7157 69.2815 38.307L70.6246 39.789ZM76.0011 37.96C78.2495 37.96 79.9552 38.5933 81.2219 39.7783L82.5882 38.3177C80.8789 36.7187 78.6486 35.96 76.0011 35.96V37.96ZM81.2335 39.789C82.5559 40.9874 83.2091 42.4682 83.2091 44.304H85.2091C85.2091 41.9158 84.3262 39.8926 82.5766 38.307L81.2335 39.789ZM83.2091 44.304C83.2091 46.0843 82.5614 47.5436 81.2335 48.747L82.5766 50.229C84.3207 48.6484 85.2091 46.6517 85.2091 44.304H83.2091ZM81.2219 48.7577C79.9552 49.9427 78.2495 50.576 76.0011 50.576V52.576C78.6486 52.576 80.8789 51.8173 82.5882 50.2183L81.2219 48.7577Z" fill="black" mask="url(#path-1-outside-1_249_673)"></path>
<path d="M63.288 0.239997H64.288V-0.760003H63.288V0.239997ZM63.288 51V52H64.288V51H63.288ZM49.176 51H48.176V52H49.176V51ZM49.176 22.992H50.176L48.2298 22.6685L49.176 22.992ZM39.6 51V52H40.3149L40.5462 51.3235L39.6 51ZM27.792 51L26.8458 51.3235L27.077 52H27.792V51ZM18.144 22.776L19.0902 22.4525L17.144 22.776H18.144ZM18.144 51V52H19.144V51H18.144ZM4.032 51H3.032V52H4.032V51ZM4.032 0.239997V-0.760003H3.032V0.239997H4.032ZM21.096 0.239997L22.0288 -0.120483L21.7816 -0.760003H21.096V0.239997ZM33.84 33.216L32.9072 33.5765L33.8507 36.0177L34.7755 33.5694L33.84 33.216ZM46.296 0.239997V-0.760003H45.6048L45.3605 -0.113364L46.296 0.239997ZM62.288 0.239997V51H64.288V0.239997H62.288ZM63.288 50H49.176V52H63.288V50ZM50.176 51V22.992H48.176V51H50.176ZM48.2298 22.6685L38.6538 50.6765L40.5462 51.3235L50.1222 23.3155L48.2298 22.6685ZM39.6 50H27.792V52H39.6V50ZM28.7382 50.6765L19.0902 22.4525L17.1978 23.0995L26.8458 51.3235L28.7382 50.6765ZM17.144 22.776V51H19.144V22.776H17.144ZM18.144 50H4.032V52H18.144V50ZM5.032 51V0.239997H3.032V51H5.032ZM4.032 1.24H21.096V-0.760003H4.032V1.24ZM20.1632 0.600477L32.9072 33.5765L34.7728 32.8555L22.0288 -0.120483L20.1632 0.600477ZM34.7755 33.5694L47.2315 0.593358L45.3605 -0.113364L32.9045 32.8626L34.7755 33.5694ZM46.296 1.24H63.288V-0.760003H46.296V1.24ZM69.9531 49.56L69.2699 50.2903L69.282 50.3016L69.2946 50.3126L69.9531 49.56ZM69.9531 39.048L69.2815 38.307L69.2757 38.3123L69.2699 38.3177L69.9531 39.048ZM81.9051 39.048L81.2219 39.7783L81.2277 39.7837L81.2335 39.789L81.9051 39.048ZM81.9051 49.488L81.2335 48.747L81.2277 48.7523L81.2219 48.7577L81.9051 49.488ZM76.0011 50.576C73.691 50.576 71.9269 49.9584 70.6116 48.8074L69.2946 50.3126C71.0512 51.8496 73.3192 52.576 76.0011 52.576V50.576ZM70.6362 48.8297C69.3585 47.6345 68.7211 46.1506 68.7211 44.304H66.7211C66.7211 46.6814 67.5716 48.7015 69.2699 50.2903L70.6362 48.8297ZM68.7211 44.304C68.7211 42.4574 69.3585 40.9735 70.6362 39.7783L69.2699 38.3177C67.5716 39.9065 66.7211 41.9266 66.7211 44.304H68.7211ZM70.6246 39.789C71.9406 38.5963 73.6999 37.96 76.0011 37.96V35.96C73.3102 35.96 71.0375 36.7157 69.2815 38.307L70.6246 39.789ZM76.0011 37.96C78.2495 37.96 79.9552 38.5933 81.2219 39.7783L82.5882 38.3177C80.8789 36.7187 78.6486 35.96 76.0011 35.96V37.96ZM81.2335 39.789C82.5559 40.9874 83.2091 42.4682 83.2091 44.304H85.2091C85.2091 41.9158 84.3262 39.8926 82.5766 38.307L81.2335 39.789ZM83.2091 44.304C83.2091 46.0843 82.5614 47.5436 81.2335 48.747L82.5766 50.229C84.3207 48.6484 85.2091 46.6517 85.2091 44.304H83.2091ZM81.2219 48.7577C79.9552 49.9427 78.2495 50.576 76.0011 50.576V52.576C78.6486 52.576 80.8789 51.8173 82.5882 50.2183L81.2219 48.7577Z" fill="black" fill-opacity="0.2" mask="url(#path-1-outside-1_249_673)"></path>
</g>
<defs>
<filter id="SvgjsFilter1000" x="0.0319977" y="0.23999" width="88.1771" height="59.336" filterUnits="userSpaceOnUse" color-interpolation-filters="sRGB">
<feFlood flood-opacity="0" result="BackgroundImageFix"></feFlood>
<feColorMatrix in="SourceAlpha" type="matrix" values="0 0 0 0 0 0 0 0 0 0 0 0 0 0 0 0 0 0 127 0" result="hardAlpha"></feColorMatrix>
<feOffset dy="4"></feOffset>
<feGaussianBlur stdDeviation="2"></feGaussianBlur>
<feComposite in2="hardAlpha" operator="out"></feComposite>
<feColorMatrix type="matrix" values="0 0 0 0 0 0 0 0 0 0 0 0 0 0 0 0 0 0 0.25 0"></feColorMatrix>
<feBlend mode="normal" in2="BackgroundImageFix" result="effect1_dropShadow_249_673"></feBlend>
<feBlend mode="normal" in="SourceGraphic" in2="effect1_dropShadow_249_673" result="shape"></feBlend>
</filter>
</defs>
</svg><style>@media (prefers-color-scheme: light) { :root { filter: none; } }
</style></svg>